<?xml version="1.0" encoding="UTF-8" standalone="no"?>
<!-- Created with Inkscape (http://www.inkscape.org/) -->

<svg
   xmlns:dc="http://purl.org/dc/elements/1.1/"
   xmlns:cc="http://creativecommons.org/ns#"
   xmlns:rdf="http://www.w3.org/1999/02/22-rdf-syntax-ns#"
   xmlns:svg="http://www.w3.org/2000/svg"
   xmlns="http://www.w3.org/2000/svg"
   xmlns:sodipodi="http://sodipodi.sourceforge.net/DTD/sodipodi-0.dtd"
   xmlns:inkscape="http://www.inkscape.org/namespaces/inkscape"
   width="200"
   height="200"
   viewBox="0 0 52.916665 52.916668"
   version="1.1"
   id="svg1099"
   inkscape:version="0.92.3 (2405546, 2018-03-11)"
   sodipodi:docname="diary.svg">
  <defs
     id="defs1093">
    <inkscape:path-effect
       effect="spiro"
       id="path-effect4374-67"
       is_visible="true" />
    <inkscape:path-effect
       effect="spiro"
       id="path-effect4374-0-5"
       is_visible="true" />
    <inkscape:path-effect
       effect="spiro"
       id="path-effect4374-3-3-1"
       is_visible="true" />
    <inkscape:path-effect
       effect="spiro"
       id="path-effect4374-06-5"
       is_visible="true" />
    <inkscape:path-effect
       effect="spiro"
       id="path-effect4374-6-6"
       is_visible="true" />
    <inkscape:path-effect
       effect="spiro"
       id="path-effect4374-8-2"
       is_visible="true" />
    <inkscape:path-effect
       is_visible="true"
       id="path-effect4809-9"
       effect="spiro" />
  </defs>
  <sodipodi:namedview
     id="base"
     pagecolor="#ffffff"
     bordercolor="#666666"
     borderopacity="1.0"
     inkscape:pageopacity="0.0"
     inkscape:pageshadow="2"
     inkscape:zoom="2.8"
     inkscape:cx="139.88233"
     inkscape:cy="94.519544"
     inkscape:document-units="mm"
     inkscape:current-layer="layer1"
     showgrid="false"
     units="px"
     inkscape:window-width="1366"
     inkscape:window-height="721"
     inkscape:window-x="0"
     inkscape:window-y="0"
     inkscape:window-maximized="1" />
  <metadata
     id="metadata1096">
    <rdf:RDF>
      <cc:Work
         rdf:about="">
        <dc:format>image/svg+xml</dc:format>
        <dc:type
           rdf:resource="http://purl.org/dc/dcmitype/StillImage" />
        <dc:title></dc:title>
      </cc:Work>
    </rdf:RDF>
  </metadata>
  <g
     inkscape:label="Layer 1"
     inkscape:groupmode="layer"
     id="layer1"
     transform="translate(0,-244.08332)">
    <g
       id="g931">
      <path
         id="rect56"
         d="m 13.371519,-293.6084 h 27.116498 c 1.374079,0 2.480287,1.10621 2.480287,2.48029 v 41.17291 c 0,1.37408 -1.106208,2.48029 -2.480287,2.48029 H 13.371519 c -1.374079,0 -2.480287,-1.10621 -2.480287,-2.48029 v -41.17291 c 0,-1.37408 1.106208,-2.48029 2.480287,-2.48029 z"
         style="fill:#ffffff;fill-opacity:1;stroke:none;stroke-width:4;stroke-miterlimit:4;stroke-dasharray:none;stroke-opacity:1"
         transform="scale(1,-1)" />
      <path
         inkscape:connector-curvature="0"
         id="rect965"
         d="m 13.225011,247.47491 c -1.799755,0 -3.2766448,1.47689 -3.2766448,3.27665 v 39.58019 c 0,1.79975 1.4768898,3.27664 3.2766448,3.27664 h 29.743292 v -46.13348 z m 0,1.78425 h 27.959043 v 42.56498 H 13.225011 c -0.842144,0 -1.492396,-0.65025 -1.492396,-1.49239 v -39.58019 c 0,-0.84214 0.650252,-1.4924 1.492396,-1.4924 z"
         style="color:#000000;font-style:normal;font-variant:normal;font-weight:normal;font-stretch:normal;font-size:medium;line-height:normal;font-family:sans-serif;font-variant-ligatures:normal;font-variant-position:normal;font-variant-caps:normal;font-variant-numeric:normal;font-variant-alternates:normal;font-feature-settings:normal;text-indent:0;text-align:start;text-decoration:none;text-decoration-line:none;text-decoration-style:solid;text-decoration-color:#000000;letter-spacing:normal;word-spacing:normal;text-transform:none;writing-mode:lr-tb;direction:ltr;text-orientation:mixed;dominant-baseline:auto;baseline-shift:baseline;text-anchor:start;white-space:normal;shape-padding:0;clip-rule:nonzero;display:inline;overflow:visible;visibility:visible;opacity:1;isolation:auto;mix-blend-mode:normal;color-interpolation:sRGB;color-interpolation-filters:linearRGB;solid-color:#000000;solid-opacity:1;vector-effect:none;fill:#000000;fill-opacity:1;fill-rule:nonzero;stroke:none;stroke-width:1.78424931;stroke-linecap:round;stroke-linejoin:miter;stroke-miterlimit:4;stroke-dasharray:none;stroke-dashoffset:0;stroke-opacity:1;color-rendering:auto;image-rendering:auto;shape-rendering:auto;text-rendering:auto;enable-background:accumulate" />
      <path
         inkscape:connector-curvature="0"
         id="rect965-7"
         d="m 13.225011,287.39749 c -1.765412,0 -3.2766448,1.36389 -3.2766448,3.10589 0,1.742 1.5112328,3.10501 3.2766448,3.10501 h 29.743292 v -6.2109 z m 0,1.78425 h 27.959043 v 2.6424 H 13.225011 c -0.876486,0 -1.492396,-0.61036 -1.492396,-1.32076 0,-0.7104 0.61591,-1.32164 1.492396,-1.32164 z"
         style="color:#000000;font-style:normal;font-variant:normal;font-weight:normal;font-stretch:normal;font-size:medium;line-height:normal;font-family:sans-serif;font-variant-ligatures:normal;font-variant-position:normal;font-variant-caps:normal;font-variant-numeric:normal;font-variant-alternates:normal;font-feature-settings:normal;text-indent:0;text-align:start;text-decoration:none;text-decoration-line:none;text-decoration-style:solid;text-decoration-color:#000000;letter-spacing:normal;word-spacing:normal;text-transform:none;writing-mode:lr-tb;direction:ltr;text-orientation:mixed;dominant-baseline:auto;baseline-shift:baseline;text-anchor:start;white-space:normal;shape-padding:0;clip-rule:nonzero;display:inline;overflow:visible;visibility:visible;opacity:1;isolation:auto;mix-blend-mode:normal;color-interpolation:sRGB;color-interpolation-filters:linearRGB;solid-color:#000000;solid-opacity:1;vector-effect:none;fill:#000000;fill-opacity:1;fill-rule:nonzero;stroke:none;stroke-width:1.78424931;stroke-linecap:round;stroke-linejoin:miter;stroke-miterlimit:4;stroke-dasharray:none;stroke-dashoffset:0;stroke-opacity:1;color-rendering:auto;image-rendering:auto;shape-rendering:auto;text-rendering:auto;enable-background:accumulate" />
      <g
         style="stroke:#060606;stroke-opacity:1"
         id="g941"
         transform="matrix(0.29601517,0,0,0.29601517,10.939481,203.69063)">
        <path
           style="fill:#ffffff;fill-rule:evenodd;stroke:#060606;stroke-width:4;stroke-linecap:round;stroke-linejoin:miter;stroke-miterlimit:4;stroke-dasharray:none;stroke-opacity:1"
           d="m 80.440797,218.75567 h 7.50612"
           id="path4372"
           inkscape:connector-curvature="0"
           inkscape:path-effect="#path-effect4374-67"
           inkscape:original-d="m 80.440797,218.75567 h 7.50612" />
        <path
           style="fill:#ffffff;fill-rule:evenodd;stroke:#060606;stroke-width:4;stroke-linecap:round;stroke-linejoin:miter;stroke-miterlimit:4;stroke-dasharray:none;stroke-opacity:1"
           d="m 18.111417,218.75567 h 7.50612"
           id="path4372-9"
           inkscape:connector-curvature="0"
           inkscape:original-d="m 18.111417,218.75567 h 7.50612"
           inkscape:path-effect="#path-effect4374-0-5" />
        <path
           style="fill:#ffffff;fill-rule:evenodd;stroke:#060606;stroke-width:4;stroke-linecap:round;stroke-linejoin:miter;stroke-miterlimit:4;stroke-dasharray:none;stroke-opacity:1"
           d="m 33.646217,199.37273 -5.30762,-5.30763"
           id="path4372-6"
           inkscape:connector-curvature="0"
           inkscape:path-effect="#path-effect4374-3-3-1"
           inkscape:original-d="m 33.646217,199.37273 -5.30762,-5.30763" />
        <path
           style="fill:#ffffff;fill-rule:evenodd;stroke:#060606;stroke-width:4;stroke-linecap:round;stroke-linejoin:miter;stroke-miterlimit:4;stroke-dasharray:none;stroke-opacity:1"
           d="m 53.029167,191.34405 v -7.50612"
           id="path4372-2"
           inkscape:connector-curvature="0"
           inkscape:path-effect="#path-effect4374-06-5"
           inkscape:original-d="m 53.029167,191.34405 v -7.50612" />
        <path
           style="fill:#ffffff;fill-rule:evenodd;stroke:#060606;stroke-width:4;stroke-linecap:round;stroke-linejoin:miter;stroke-miterlimit:4;stroke-dasharray:none;stroke-opacity:1"
           d="m 72.412117,199.37272 5.30762,-5.30762"
           id="path4372-1"
           inkscape:connector-curvature="0"
           inkscape:path-effect="#path-effect4374-6-6"
           inkscape:original-d="m 72.412117,199.37272 5.30762,-5.30762" />
        <path
           style="fill:#ffffff;fill-rule:evenodd;stroke:#060606;stroke-width:4;stroke-linecap:round;stroke-linejoin:miter;stroke-miterlimit:4;stroke-dasharray:none;stroke-opacity:1"
           d="m 77.719737,243.44624 -5.30762,-5.30762"
           id="path4372-7"
           inkscape:connector-curvature="0"
           inkscape:path-effect="#path-effect4374-8-2"
           inkscape:original-d="m 77.719737,243.44624 -5.30762,-5.30762" />
        <path
           inkscape:original-d="m 28.338597,243.44625 5.30762,-5.30763"
           inkscape:path-effect="#path-effect4809-9"
           inkscape:connector-curvature="0"
           id="path4807"
           d="m 28.338597,243.44625 5.30762,-5.30763"
           style="fill:#ffffff;fill-rule:evenodd;stroke:#060606;stroke-width:4;stroke-linecap:round;stroke-linejoin:miter;stroke-miterlimit:4;stroke-dasharray:none;stroke-opacity:1" />
      </g>
      <g
         id="g4347"
         transform="matrix(0.59026124,0,0,0.59026124,4.5021237,258.3982)"
         style="fill:#000000;fill-opacity:1">
        <g
           id="g4351"
           style="fill:#000000;fill-opacity:1">
          <path
             inkscape:connector-curvature="0"
             d="m 37.5,7.022 c -5.514,0 -10,4.486 -10,10 0,3.8 2.185,7.378 5.5,9.107 v 3.893 c 0,0.553 0.447,1 1,1 h 0.5 V 33.5 c 0,0.553 0.447,1 1,1 h 4 c 0.553,0 1,-0.447 1,-1 V 31.022 H 41 c 0.553,0 1,-0.447 1,-1 v -3.893 c 3.314,-1.729 5.5,-5.308 5.5,-9.107 0,-5.514 -4.486,-10 -10,-10 z m 1,25.478 h -2 v -1.478 h 2 z m 2.1,-7.916 C 40.235,24.743 40,25.103 40,25.5 v 3.521 H 39.5 35.5 35 V 25.5 c 0,-0.398 -0.235,-0.757 -0.6,-0.916 -2.886,-1.261 -4.9,-4.371 -4.9,-7.562 0,-4.411 3.589,-8 8,-8 4.411,0 8,3.589 8,8 0,3.191 -2.015,6.301 -4.9,7.562 z"
             id="path4343"
             style="fill:#000000;fill-opacity:1" />
          <path
             inkscape:connector-curvature="0"
             d="m 37,12.5 c -2.733,0 -4.5,1.767 -4.5,4.5 0,0.553 0.447,1 1,1 0.553,0 1,-0.447 1,-1 0,-1.141 0.434,-2.5 2.5,-2.5 0.553,0 1,-0.447 1,-1 0,-0.553 -0.447,-1 -1,-1 z"
             id="path4345"
             style="fill:#000000;fill-opacity:1" />
        </g>
      </g>
    </g>
  </g>
</svg>
