<?xml version="1.0" encoding="UTF-8" standalone="no"?>
<!-- Created with Inkscape (http://www.inkscape.org/) -->

<svg
   xmlns:dc="http://purl.org/dc/elements/1.1/"
   xmlns:cc="http://creativecommons.org/ns#"
   xmlns:rdf="http://www.w3.org/1999/02/22-rdf-syntax-ns#"
   xmlns:svg="http://www.w3.org/2000/svg"
   xmlns="http://www.w3.org/2000/svg"
   xmlns:sodipodi="http://sodipodi.sourceforge.net/DTD/sodipodi-0.dtd"
   xmlns:inkscape="http://www.inkscape.org/namespaces/inkscape"
   width="200"
   height="200"
   viewBox="0 0 52.916665 52.916668"
   version="1.1"
   id="svg1099"
   inkscape:version="0.92.3 (2405546, 2018-03-11)"
   sodipodi:docname="dict.svg">
  <defs
     id="defs1093" />
  <sodipodi:namedview
     id="base"
     pagecolor="#ffffff"
     bordercolor="#666666"
     borderopacity="1.0"
     inkscape:pageopacity="0.0"
     inkscape:pageshadow="2"
     inkscape:zoom="1.4"
     inkscape:cx="8.8912788"
     inkscape:cy="44.736131"
     inkscape:document-units="mm"
     inkscape:current-layer="layer1"
     showgrid="false"
     units="px"
     inkscape:window-width="729"
     inkscape:window-height="717"
     inkscape:window-x="0"
     inkscape:window-y="0"
     inkscape:window-maximized="0" />
  <metadata
     id="metadata1096">
    <rdf:RDF>
      <cc:Work
         rdf:about="">
        <dc:format>image/svg+xml</dc:format>
        <dc:type
           rdf:resource="http://purl.org/dc/dcmitype/StillImage" />
        <dc:title />
      </cc:Work>
    </rdf:RDF>
  </metadata>
  <g
     inkscape:label="Layer 1"
     inkscape:groupmode="layer"
     id="layer1"
     transform="translate(0,-244.08332)">
    <rect
       style="fill:#ffffff;fill-opacity:1;stroke:none;stroke-width:7.2900548;stroke-miterlimit:4;stroke-dasharray:none;stroke-opacity:1"
       id="rect978"
       width="29.80331"
       height="30.554508"
       x="11.158135"
       y="258.1207"
       ry="2.1964629" />
    <path
       style="stroke-width:0.35802504"
       d="M 66.498047 17.142578 C 46.663468 17.142578 30.695312 33.11073 30.695312 52.945312 L 30.695312 147.05469 C 30.695312 166.88927 46.663468 182.85742 66.498047 182.85742 L 73.148438 182.85742 L 102.30078 182.85742 L 158.05078 182.85742 C 164.28451 182.85742 169.30469 177.83919 169.30469 171.60547 L 169.30469 168.53711 L 160.22656 168.53711 L 160.22656 134.7793 L 169.30469 134.7793 L 169.30469 28.394531 C 169.30469 22.160843 164.28451 17.142578 158.05078 17.142578 L 102.30078 17.142578 L 73.148438 17.142578 L 66.498047 17.142578 z M 59.849609 134.7793 L 154.81445 134.7793 L 154.81445 168.53711 L 59.849609 168.53711 C 51.349066 168.53711 44.505859 161.69194 44.505859 153.19141 L 44.505859 150.12305 C 44.505859 141.62251 51.349066 134.7793 59.849609 134.7793 z "
       transform="matrix(0.26458333,0,0,0.26458333,0,244.08332)"
       id="rect832" />
    <path
       style="fill:none;fill-rule:evenodd;stroke:#000000;stroke-width:0;stroke-linecap:butt;stroke-linejoin:miter;stroke-miterlimit:4;stroke-dasharray:none;stroke-opacity:1"
       d="m 26.458333,279.17667 v 8.93158"
       id="path1075"
       inkscape:connector-curvature="0" />
    <g
       aria-label="A Z"
       transform="matrix(0.26458333,0,0,0.26458333,0.37797622,245.02826)"
       style="font-style:normal;font-weight:normal;font-size:40px;line-height:125%;font-family:sans-serif;letter-spacing:0px;word-spacing:0px;fill:#ffffff;fill-opacity:1;stroke:none;stroke-width:1px;stroke-linecap:butt;stroke-linejoin:miter;stroke-opacity:1"
       id="flowRoot2974">
      <path
         d="m 82.957031,63.689453 -5.351562,14.511719 h 10.722656 z m -2.226562,-3.886719 h 4.472656 l 11.113281,29.160157 h -4.101562 l -2.65625,-7.480469 H 76.414062 l -2.65625,7.480469 h -4.160156 z"
         style=""
         id="path2982" />
      <path
         d="m 111.60938,59.802734 h 22.91015 v 3.007813 l -18.4375,22.832031 h 18.88672 v 3.320313 h -23.80859 v -3.007813 l 18.4375,-22.832031 h -17.98828 z"
         style=""
         id="path2984" />
    </g>
  </g>
</svg>
