<?xml version="1.0" encoding="UTF-8" standalone="no"?>
<!-- Created with Inkscape (http://www.inkscape.org/) -->

<svg
   xmlns:dc="http://purl.org/dc/elements/1.1/"
   xmlns:cc="http://creativecommons.org/ns#"
   xmlns:rdf="http://www.w3.org/1999/02/22-rdf-syntax-ns#"
   xmlns:svg="http://www.w3.org/2000/svg"
   xmlns="http://www.w3.org/2000/svg"
   xmlns:sodipodi="http://sodipodi.sourceforge.net/DTD/sodipodi-0.dtd"
   xmlns:inkscape="http://www.inkscape.org/namespaces/inkscape"
   width="200"
   height="200"
   viewBox="0 0 52.916665 52.916668"
   version="1.1"
   id="svg1099"
   inkscape:version="0.92.3 (2405546, 2018-03-11)"
   sodipodi:docname="dict.svg">
  <defs
     id="defs1093" />
  <sodipodi:namedview
     id="base"
     pagecolor="#ffffff"
     bordercolor="#666666"
     borderopacity="1.0"
     inkscape:pageopacity="0.0"
     inkscape:pageshadow="2"
     inkscape:zoom="1.4"
     inkscape:cx="8.8912788"
     inkscape:cy="-40.978155"
     inkscape:document-units="mm"
     inkscape:current-layer="layer1"
     showgrid="false"
     units="px"
     inkscape:window-width="729"
     inkscape:window-height="717"
     inkscape:window-x="0"
     inkscape:window-y="0"
     inkscape:window-maximized="0" />
  <metadata
     id="metadata1096">
    <rdf:RDF>
      <cc:Work
         rdf:about="">
        <dc:format>image/svg+xml</dc:format>
        <dc:type
           rdf:resource="http://purl.org/dc/dcmitype/StillImage" />
        <dc:title></dc:title>
      </cc:Work>
    </rdf:RDF>
  </metadata>
  <g
     inkscape:label="Layer 1"
     inkscape:groupmode="layer"
     id="layer1"
     transform="translate(0,-244.08332)">
    <rect
       style="fill:#ffffff;fill-opacity:1;stroke:none;stroke-width:7.2900548;stroke-miterlimit:4;stroke-dasharray:none;stroke-opacity:1"
       id="rect978"
       width="29.80331"
       height="30.554508"
       x="11.158135"
       y="258.1207"
       ry="2.1964629" />
    <path
       inkscape:connector-curvature="0"
       style="stroke-width:0.09472746"
       d="m 17.59447,248.619 c -5.247899,0 -9.4727472,4.22484 -9.4727472,9.47274 v 24.89983 c 0,5.2479 4.2248482,9.47274 9.4727472,9.47274 h 1.759304 7.71344 14.75048 c 1.64934,0 2.97725,-1.32791 2.97725,-2.97725 v -0.81185 h -2.40149 v -8.93158 h 2.40149 v -28.14757 c 0,-1.64933 -1.32791,-2.97706 -2.97725,-2.97706 h -14.75048 -7.71344 z m 5.373384,10.62797 h 1.41221 l 3.50917,9.20763 h -1.2951 l -0.83886,-2.36208 h -4.15043 l -0.83867,2.36208 h -1.313602 z m 9.75026,0 h 7.23407 v 0.94969 l -5.82185,7.20946 h 5.96358 v 1.04848 h -7.5177 v -0.94987 l 5.82185,-7.20928 h -5.67995 z m -9.04721,1.22721 -1.68992,4.58226 h 3.38576 z m -7.835552,19.26945 h 25.126092 v 8.93158 H 15.835352 c -2.249102,0 -4.059775,-1.81068 -4.059775,-4.05978 v -0.81203 c 0,-2.2491 1.810673,-4.05977 4.059775,-4.05977 z"
       id="rect832" />
    <path
       style="fill:none;fill-rule:evenodd;stroke:#000000;stroke-width:0;stroke-linecap:butt;stroke-linejoin:miter;stroke-miterlimit:4;stroke-dasharray:none;stroke-opacity:1"
       d="m 26.458333,279.17667 v 8.93158"
       id="path1075"
       inkscape:connector-curvature="0" />
  </g>
</svg>
