<?xml version="1.0" encoding="UTF-8" standalone="no"?>
<!-- Created with Inkscape (http://www.inkscape.org/) -->

<svg
   xmlns:dc="http://purl.org/dc/elements/1.1/"
   xmlns:cc="http://creativecommons.org/ns#"
   xmlns:rdf="http://www.w3.org/1999/02/22-rdf-syntax-ns#"
   xmlns:svg="http://www.w3.org/2000/svg"
   xmlns="http://www.w3.org/2000/svg"
   xmlns:sodipodi="http://sodipodi.sourceforge.net/DTD/sodipodi-0.dtd"
   xmlns:inkscape="http://www.inkscape.org/namespaces/inkscape"
   width="200"
   height="200"
   viewBox="0 0 52.916665 52.916668"
   version="1.1"
   id="svg1099"
   inkscape:version="0.92.3 (2405546, 2018-03-11)"
   sodipodi:docname="hospitation.svg">
  <defs
     id="defs1093">
    <inkscape:path-effect
       effect="spiro"
       id="path-effect4374-67"
       is_visible="true" />
    <inkscape:path-effect
       effect="spiro"
       id="path-effect4374-0-5"
       is_visible="true" />
    <inkscape:path-effect
       effect="spiro"
       id="path-effect4374-3-3-1"
       is_visible="true" />
    <inkscape:path-effect
       effect="spiro"
       id="path-effect4374-06-5"
       is_visible="true" />
    <inkscape:path-effect
       effect="spiro"
       id="path-effect4374-6-6"
       is_visible="true" />
    <inkscape:path-effect
       effect="spiro"
       id="path-effect4374-8-2"
       is_visible="true" />
    <inkscape:path-effect
       is_visible="true"
       id="path-effect4809-9"
       effect="spiro" />
  </defs>
  <sodipodi:namedview
     id="base"
     pagecolor="#ffffff"
     bordercolor="#666666"
     borderopacity="1.0"
     inkscape:pageopacity="0.0"
     inkscape:pageshadow="2"
     inkscape:zoom="1.979899"
     inkscape:cx="140.78665"
     inkscape:cy="146.88804"
     inkscape:document-units="mm"
     inkscape:current-layer="layer1"
     showgrid="false"
     units="px"
     inkscape:window-width="729"
     inkscape:window-height="717"
     inkscape:window-x="-4"
     inkscape:window-y="0"
     inkscape:window-maximized="0" />
  <metadata
     id="metadata1096">
    <rdf:RDF>
      <cc:Work
         rdf:about="">
        <dc:format>image/svg+xml</dc:format>
        <dc:type
           rdf:resource="http://purl.org/dc/dcmitype/StillImage" />
        <dc:title></dc:title>
      </cc:Work>
    </rdf:RDF>
  </metadata>
  <g
     inkscape:label="Layer 1"
     inkscape:groupmode="layer"
     id="layer1"
     transform="translate(0,-244.08332)">
    <g
       transform="matrix(0.24342884,0,0,0.24342884,233.95297,207.2372)"
       id="g880">
      <g
         transform="translate(28.666443,-0.20124101)"
         id="g2554">
        <g
           id="g2548"
           transform="matrix(0.76386055,0,0,0.76386055,-219.78474,58.599413)">
          <path
             inkscape:connector-curvature="0"
             id="rect2509"
             d="m -989.03666,261.92317 v 40.37944 8.25944 34.75292 h 11.01278 v -34.75292 h 27.01954 v 34.75292 h 11.52488 v -43.01236 h -38.54442 v -40.37944 z"
             style="fill:#000000;fill-opacity:1;stroke:#f20000;stroke-width:0;stroke-linecap:round;stroke-miterlimit:4;stroke-dasharray:none;stroke-opacity:1" />
          <path
             id="rect2520"
             transform="scale(0.26458333)"
             d="m -3657.6992,956.61523 c -12.7442,5.58257 -22.4196,18.1013 -24.3574,33.68555 l -12.293,98.85942 c -0.3789,3.0467 -0.4321,6.0503 -0.207,8.9785 -0.2232,1.4664 -0.3399,2.9693 -0.3399,4.5 v 4.9043 c 0,16.3051 13.1265,29.4316 29.4317,29.4316 h 115.7656 l 37.9355,112.4668 c 4.8856,14.4843 20.4786,22.2117 34.9629,17.3262 14.4843,-4.8855 22.2117,-20.4786 17.3262,-34.9629 l -46.6406,-138.2793 c -0.6955,-2.0617 -1.6138,-3.9809 -2.709,-5.752 -5.0959,-8.7256 -14.5499,-14.5664 -25.4238,-14.5664 h -79.379 l 4.8985,-39.3965 27.8847,28.0196 c 5.6881,5.7155 14.3354,6.5747 20.9356,2.6035 0.8063,-0.2424 1.6082,-0.5207 2.3965,-0.8809 l 73.9844,-33.8066 c 9.2887,-4.2444 13.3498,-15.139 9.1054,-24.4277 -4.2443,-9.28886 -15.139,-13.34986 -24.4277,-9.10551 l -58.4707,26.71681 -57.6348,-57.91408 a 48.907589,48.566033 0 0 1 -12.9375,1.73829 48.907589,48.566033 0 0 1 -29.8066,-10.13868 z"
             style="fill:#000000;fill-opacity:1;stroke:#f20000;stroke-width:0;stroke-linecap:round;stroke-miterlimit:4;stroke-dasharray:none;stroke-opacity:1"
             inkscape:connector-curvature="0" />
          <path
             id="path2532"
             d="m -948.52385,242.93697 a 11.355846,11.355846 0 0 1 -11.35585,11.35584 11.355846,11.355846 0 0 1 -11.35585,-11.35584 11.355846,11.355846 0 0 1 11.35585,-11.35585 11.355846,11.355846 0 0 1 11.35585,11.35585 z"
             style="fill:#000000;fill-opacity:1;stroke:#f20000;stroke-width:0;stroke-linecap:round;stroke-miterlimit:4;stroke-dasharray:none;stroke-opacity:1"
             inkscape:connector-curvature="0" />
        </g>
      </g>
      <g
         transform="translate(-126.54098,33.344285)"
         id="g2602">
        <path
           inkscape:connector-curvature="0"
           style="fill:#000000;fill-opacity:1;stroke:#000000;stroke-width:0;stroke-linecap:round;stroke-miterlimit:4;stroke-dasharray:none;stroke-opacity:1"
           d="m -2873.4961,622.07812 -2.6445,337.39063 h 299.0898 l -7.873,-71.12695 h -41.9434 c -2.0878,0 -4.0521,-0.41431 -5.9316,-0.9668 -4.1577,-0.17526 -8.3449,-1.3949 -11.9004,-4.08789 l -37.9004,-28.70313 c -9.2574,-7.01159 -11.105,-20.3933 -4.0938,-29.65039 l 1.0411,-1.37695 c 3.9441,-5.20751 9.9083,-8.13072 15.9941,-8.38281 l 8.541,-0.34766 -0.4297,1.79492 c 1.9299,0.70938 3.8373,1.54693 5.5469,2.8418 l 32.7773,24.82617 h 43.8946 c 0.5368,0 0.5099,0.01 0.4551,0.0176 1.1174,-0.20285 2.2149,-0.44726 3.4375,-0.44726 h 8.1855 c -5.3398,-7.07468 -9.0899,-15.43425 -9.0898,-24.93946 -10e-5,-23.25604 18.99,-42.24628 42.246,-42.24609 23.256,-8e-5 42.2482,18.99047 42.2481,42.24609 0,9.50589 -3.7496,17.86444 -9.0898,24.93946 h 8.1933 c 10.9594,-1e-5 19.9785,9.01905 19.9785,19.97851 v 95.63086 h 85.5352 V 622.07812 Z m 339.4023,167.53126 c -16.2639,-1.2e-4 -29.3086,13.04648 -29.3085,29.31054 -10e-5,16.26403 13.0441,29.3107 29.3085,29.31055 16.2643,0 29.3107,-13.0463 29.3106,-29.31055 10e-5,-16.26436 -13.0466,-29.31058 -29.3106,-29.31054 z m -134.3378,38.49414 c -0.2296,-0.009 -0.4595,-0.008 -0.6895,0.002 v 0.004 c -2.3667,0.098 -4.6313,1.17222 -6.2168,3.26562 l -1.041,1.37695 c -2.8191,3.72216 -2.1358,8.70272 1.5859,11.52149 l 37.9004,28.71094 c 1.5863,1.20143 3.373,1.71596 5.1856,1.66796 l 1.1367,-0.0351 1.0801,0.36133 c 0.8482,0.28248 1.7128,0.42773 2.6211,0.42773 h 47.541 c -0.5783,0 -0.5162,-0.006 0.1953,-0.006 h 5.793 l 9.3046,84.06836 h 78.336 v -95.62891 c 0,-4.0165 -3.0265,-7.04296 -7.043,-7.04296 h -11.4414 c -8.6046,6.65627 -18.9596,10.71352 -29.8965,10.73242 h -0.01 -0.012 c -10.9474,-0.0135 -21.316,-4.07033 -29.9277,-10.73242 h -11.4082 c -0.5777,0 -1.1643,0.0798 -1.8008,0.24609 l -0.8711,0.22656 -0.9043,-0.0176 c -0.6131,-0.0151 -0.7113,-0.0273 -0.3164,-0.0273 h -48.2403 l -36.2461,-27.44531 c -1.4248,-1.07914 -3.0105,-1.61093 -4.6171,-1.67578 z"
           transform="scale(0.26458333)"
           id="rect2392-7-6" />
        <path
           style="fill:#000000;fill-opacity:1;stroke:#000000;stroke-width:0;stroke-linecap:round;stroke-miterlimit:4;stroke-dasharray:none;stroke-opacity:1"
           d="m -670.47221,207.20588 c -5.22817,-4e-5 -9.46669,4.23849 -9.46666,9.46667 -3e-5,5.22816 4.23849,9.46626 9.46666,9.46622 5.22813,1e-5 9.46623,-4.23808 9.46621,-9.46622 2e-5,-5.22815 -4.23806,-9.46669 -9.46621,-9.46667 z m -35.79716,10.18657 c -1.11819,0.0463 -2.20691,0.57479 -2.93843,1.54063 l -0.27595,0.36438 c -1.30048,1.71704 -0.96528,4.14656 0.75174,5.44704 l 10.02739,7.59483 c 0.73467,0.55645 1.59943,0.81106 2.45068,0.78845 0.38804,0.1292 0.80254,0.20208 1.23507,0.20208 h 12.57844 c 0.0172,0 0.0338,-0.003 0.0509,-0.003 l 2.8721,25.94357 v 25.97983 c 0,1.9812 1.59488,3.57611 3.57607,3.57611 h 10.93877 c 1.98116,0 3.57608,-1.59491 3.57608,-3.57611 v -25.97984 h 1.89395 c 1.98118,0 3.57611,-1.59488 3.57611,-3.57608 v -27.13659 c 0,-1.9812 -1.59493,-3.5761 -3.57611,-3.5761 h -3.44739 c -2.06957,1.82514 -4.73288,2.83458 -7.49223,2.83982 -2.76165,-0.003 -5.42719,-1.01319 -7.49844,-2.83982 h -3.44033 c -0.31516,0 -0.61886,0.0448 -0.90961,0.12072 -0.0401,-0.001 -0.0794,-0.006 -0.11985,-0.006 h -12.18973 l -9.13059,-6.91517 c -0.75122,-0.56897 -1.63892,-0.82487 -2.50862,-0.78889 z"
           id="rect1746-5-93-6"
           inkscape:connector-curvature="0" />
      </g>
    </g>
    <g
       aria-label="a+b"
       transform="matrix(0.26458333,0,0,0.26458333,3.4745039,245.01876)"
       style="font-style:normal;font-variant:normal;font-weight:normal;font-stretch:normal;font-size:40px;line-height:125%;font-family:Karumbi;-inkscape-font-specification:Karumbi;letter-spacing:0px;word-spacing:0px;fill:#ffffff;fill-opacity:1;stroke:none;stroke-width:1px;stroke-linecap:butt;stroke-linejoin:miter;stroke-opacity:1"
       id="flowRoot1638">
      <path
         d="m 75.535859,77.121994 q 0.32,-0.64 0.76,-1.2 0.48,-0.56 1.64,-1.68 1.2,-1.12 2.16,-1.72 1,-0.6 1.48,-0.64 0.48,-0.04 0.8,0.16 0.68,0.44 0.4,1.32 0.28,-0.2 0.52,-0.36 0.24,-0.2 0.6,-0.24 0.4,-0.08 0.68,0.2 0.28,0.24 0.2,0.72 -0.4,1.48 -0.84,2.68 -0.4,1.2 -0.24,1.96 0.16,0.76 1.16,0.96 1,0.16 3.48,-0.4 0.4,-0.04 0.64,0.16 0.24,0.2 0.28,0.48 0.04,0.28 -0.16,0.56 -0.16,0.28 -0.72,0.44 -1.44,0.36 -2.88,0.36 -1.4,0.04 -2.16,-0.4 -0.72,-0.4 -1.04,-1.08 -0.48,-1.08 0.12,-3.32 -0.6,0.6 -1.44,1.52 -0.84,0.92 -1.2,1.28 -0.36,0.32 -0.68,0.6 -0.28,0.24 -1,0.44 -0.68,0.2 -1.36,0.16 -0.64,-0.04 -1.12,-0.44 -0.48,-0.4 -0.44,-1.12 0.04,-0.76 0.36,-1.4 z m 5.48,-2.44 q -0.44,-0.04 -0.68,-0.36 -1,0.8 -2.08,1.84 -1.08,1 -1.44,2.24 1.6,0.44 3.68,-2.44 0.56,-0.8 1.16,-1.44 -0.24,0.08 -0.64,0.16 z"
         style=""
         id="path1965" />
      <path
         d="m 95.494609,74.841994 q -4.44,0.24 -5.88,0.24 -0.44,-0.04 -0.64,-0.32 -0.16,-0.24 -0.16,-0.52 0.04,-0.68 0.84,-0.76 1.44,0 2.88,-0.08 1.48,-0.08 2.96,-0.16 0.04,-0.68 0.12,-1.32 0.08,-0.64 0.16,-1.28 l 0.08,-1.28 q 0,-0.88 -0.48,-1.08 -0.52,-0.56 -0.2,-1.08 0.32,-0.52 1.04,-0.32 1.64,0.76 1.16,4 -0.2,1.32 -0.2,2.2 1.56,-0.08 3.120001,-0.16 1.56,-0.08 3.12,-0.12 0.68,0.28 0.68,0.84 0,0.64 -0.72,0.76 -1.64,0.04 -6.160001,0.28 0.12,4.2 -0.48,6.32 -0.32,0.76 -1,0.56 -0.68,-0.2 -0.52,-1 0.44,-1.4 0.4,-2.84 -0.04,-1.44 -0.12,-2.88 z"
         style=""
         id="path1967" />
      <path
         d="m 112.09023,66.321994 q 0.08,-0.4 0.36,-0.56 0.28,-0.2 0.56,-0.16 0.28,0.04 0.48,0.28 0.2,0.24 0.16,0.64 -0.36,3.2 -2.8,6.64 0.24,-0.08 0.48,-0.16 1.84,-0.72 2.84,-0.36 1,0.32 1.32,1.08 0.32,0.72 0.16,1.76 -0.16,1 -0.68,2 -1.2,2.36 -3.16,3.04 -1.68,0.6 -2.72,0.6 -1.04,0 -1.8,-0.36 -0.8,-0.32 -1.24,-0.88 -1.44,-1.6 0.48,-2.96 0.2,-0.16 0.4,-0.32 -0.44,-0.44 -0.08,-1.08 2.48,-2.8 3.28,-4.08 1.68,-2.64 1.96,-5.12 z m 2.04,9.32 q 0.16,-0.68 0,-1.04 -0.12,-0.36 -0.84,-0.36 -0.68,0 -1.36,0.24 -0.64,0.24 -1.2,0.6 -0.56,0.36 -1.08,0.76 -0.48,0.4 -0.96,0.68 0.16,0.44 -0.2,0.88 -1.32,0.76 -1.24,1.44 0,0.28 0.76,0.56 0.76,0.32 1.88,0.08 1.96,-0.4 3.48,-2.44 0.6,-0.72 0.76,-1.4 z"
         style=""
         id="path1969" />
    </g>
  </g>
</svg>
