<?xml version="1.0" encoding="UTF-8" standalone="no"?>
<!-- Created with Inkscape (http://www.inkscape.org/) -->

<svg
   xmlns:dc="http://purl.org/dc/elements/1.1/"
   xmlns:cc="http://creativecommons.org/ns#"
   xmlns:rdf="http://www.w3.org/1999/02/22-rdf-syntax-ns#"
   xmlns:svg="http://www.w3.org/2000/svg"
   xmlns="http://www.w3.org/2000/svg"
   xmlns:sodipodi="http://sodipodi.sourceforge.net/DTD/sodipodi-0.dtd"
   xmlns:inkscape="http://www.inkscape.org/namespaces/inkscape"
   width="200"
   height="200"
   viewBox="0 0 52.916665 52.916668"
   version="1.1"
   id="svg1978"
   inkscape:version="0.92.3 (2405546, 2018-03-11)"
   sodipodi:docname="pb161.svg">
  <defs
     id="defs1972" />
  <sodipodi:namedview
     id="base"
     pagecolor="#ffffff"
     bordercolor="#666666"
     borderopacity="1.0"
     inkscape:pageopacity="0.0"
     inkscape:pageshadow="2"
     inkscape:zoom="0.35"
     inkscape:cx="-221.98816"
     inkscape:cy="352.67326"
     inkscape:document-units="mm"
     inkscape:current-layer="layer1"
     showgrid="false"
     units="px"
     inkscape:window-width="1366"
     inkscape:window-height="721"
     inkscape:window-x="0"
     inkscape:window-y="0"
     inkscape:window-maximized="1" />
  <metadata
     id="metadata1975">
    <rdf:RDF>
      <cc:Work
         rdf:about="">
        <dc:format>image/svg+xml</dc:format>
        <dc:type
           rdf:resource="http://purl.org/dc/dcmitype/StillImage" />
        <dc:title></dc:title>
      </cc:Work>
    </rdf:RDF>
  </metadata>
  <g
     inkscape:label="Layer 1"
     inkscape:groupmode="layer"
     id="layer1"
     transform="translate(0,-244.08332)">
    <g
       id="g2812"
       transform="translate(-4.5357142,0.85657583)">
      <path
         style="fill:#000000;stroke-width:0.14106169"
         id="path2"
         d="m 52.027335,281.82873 c 0.338689,-0.58667 0.549153,-1.24769 0.549153,-1.84128 V 259.3827 c 0,-0.59357 -0.210182,-1.25446 -0.549012,-1.84113 l -21.033429,12.14358 z"
         inkscape:connector-curvature="0" />
      <path
         style="fill:#000000;stroke-width:0.14106169"
         id="path4"
         d="m 32.863115,293.52712 17.844306,-10.30231 c 0.514028,-0.29679 0.981224,-0.80926 1.319914,-1.39608 L 30.994047,269.68515 9.9607603,281.82888 c 0.3386897,0.58667 0.8060267,1.09928 1.3199147,1.39593 l 17.844305,10.30231 c 1.027916,0.59358 2.710218,0.59358 3.738135,0 z"
         inkscape:connector-curvature="0" />
      <path
         style="fill:#000000;stroke-width:0.14106169"
         id="path6"
         d="m 52.027476,257.54143 c -0.338831,-0.58682 -0.806167,-1.09929 -1.320055,-1.39609 L 32.863115,245.84305 c -1.027917,-0.5936 -2.710219,-0.5936 -3.738135,0 l -17.844305,10.30229 c -1.028058,0.59345 -1.8690679,2.05033 -1.8690679,3.23736 v 20.60475 c 0,0.59359 0.2103231,1.25461 0.5491532,1.84128 L 30.994047,269.68515 Z"
         inkscape:connector-curvature="0" />
      <g
         transform="matrix(0.1410617,0,0,0.1410617,9.4116071,245.39785)"
         id="g10">
        <path
           id="path8"
           d="m 153,274.175 c -56.243,0 -102,-45.757 -102,-102 0,-56.243 45.757,-102 102,-102 36.292,0 70.139,19.53 88.331,50.968 l -44.143,25.544 C 188.083,130.951 171.15,121.175 153,121.175 c -28.122,0 -51,22.878 -51,51 0,28.121 22.878,51 51,51 18.152,0 35.085,-9.776 44.191,-25.515 l 44.143,25.543 c -18.192,31.441 -52.04,50.972 -88.334,50.972 z"
           inkscape:connector-curvature="0"
           style="fill:#ffffff" />
      </g>
      <g
         transform="matrix(0.1410617,0,0,0.1410617,9.4116071,245.39785)"
         id="g14">
        <polygon
           id="polygon12"
           points="243.666,177.841 255,177.841 255,166.508 243.666,166.508 243.666,155.175 232.334,155.175 232.334,166.508 221,166.508 221,177.841 232.334,177.841 232.334,189.175 243.666,189.175 "
           style="fill:#ffffff" />
      </g>
      <g
         transform="matrix(0.1410617,0,0,0.1410617,9.4116071,245.39785)"
         id="g18">
        <polygon
           id="polygon16"
           points="286.166,177.841 297.5,177.841 297.5,166.508 286.166,166.508 286.166,155.175 274.834,155.175 274.834,166.508 263.5,166.508 263.5,177.841 274.834,177.841 274.834,189.175 286.166,189.175 "
           style="fill:#ffffff" />
      </g>
    </g>
  </g>
</svg>
